<mxfile host="app.diagrams.net" modified="2023-10-03T08:39:09.466Z" agent="Mozilla/5.0 (Windows NT 10.0; Win64; x64) AppleWebKit/537.36 (KHTML, like Gecko) Chrome/117.0.0.0 Safari/537.36" version="22.0.1" etag="FFJgMcaX2sJqVMHE4E5s" type="github">
  <diagram name="第 1 页" id="H4gyPj4uC_-jgYnE8VgN">
    <mxGraphModel>
      <root>
        <mxCell id="0" />
        <mxCell id="1" parent="0" />
      </root>
    </mxGraphModel>
  </diagram>
</mxfile>
